<svg width="30" height="18" viewBox="0 0 30 18" fill="none" xmlns="http://www.w3.org/2000/svg">
<path d="M29.3124 1.21896C29.522 0.515712 29.3124 0 28.3213 0H25.0381C24.2027 0 23.821 0.446144 23.6114 0.936146C23.6114 0.936146 21.9421 5.04823 19.5766 7.7145C18.8131 8.49034 18.4643 8.73534 18.0481 8.73534C17.84 8.73534 17.5375 8.49034 17.5375 7.78709V1.21896C17.5375 0.375063 17.2965 0 16.6003 0H11.4413C10.9203 0 10.6059 0.390187 10.6059 0.762225C10.6059 1.56075 11.7886 1.74525 11.9099 3.99563V8.8775C11.9099 9.94673 11.7197 10.1418 11.3005 10.1418C10.1882 10.1418 7.48136 6.01462 5.87495 1.29004C5.56205 0.372039 5.24616 0.00151296 4.40777 0.00151296H1.12608C0.187385 0.00151296 0.000244141 0.447656 0.000244141 0.937658C0.000244141 1.81785 1.11261 6.17342 5.18178 11.934C7.89457 15.8676 11.7137 18 15.193 18C17.2785 18 17.536 17.5266 17.536 16.71V13.7367C17.536 12.79 17.7352 12.5994 18.3954 12.5994C18.8805 12.5994 19.7158 12.8474 21.6636 14.7424C23.8883 16.9897 24.2566 17.9985 25.5067 17.9985H28.7884C29.7256 17.9985 30.1942 17.5251 29.9247 16.5905C29.6298 15.6604 28.5668 14.3068 27.1565 12.7053C26.39 11.7918 25.2447 10.8088 24.8959 10.3173C24.4093 9.68358 24.5501 9.4038 24.8959 8.8412C24.8974 8.84272 28.8962 3.15325 29.3124 1.21896Z" fill="white"/>
</svg>
